<svg xmlns="http://www.w3.org/2000/svg" width="120" height="60" viewBox="0 0 120 60">
  <path fill="#ffffff" d="M35.6 26.8h3.3l4.8 15.8 4.8-15.8h3.3L44.2 48h-2.8l-5.8-21.2zm36 0l-6.6 21.2h3.4l1.4-4.9H76l1.4 4.9H81L74.2 26.8h-2.6zm-1.6 13.3l3-10 3 10h-6zm21.6-13.3h10v3h-6.8v5.6h6.6v3h-6.6v6.6h6.8v3h-10V26.8zm-68.4 0c-1.8.4-3.2 1.4-4.2 3-.9 1.5-1.4 3.4-1.4 5.7 0 2.2.5 4.1 1.4 5.7 1 1.6 2.3 2.7 4.1 3.1v-3.2a4.2 4.2 0 0 1-2.1-2c-.5-1-.7-2.2-.7-3.6a7 7 0 0 1 1.7-4.9c.5-.6 1.1-.9 1.8-1.1l-.6-2.7zm-8.6 0v21.2h9v-3h-5.8V26.8h-3.2zm14.1 0v3h4.3v18.2h3.2V29.8h4.2v-3H28.7z"/>
</svg>
