<svg xmlns="http://www.w3.org/2000/svg" width="120" height="60" viewBox="0 0 120 60">
  <path fill="#ffffff" d="M59.2 20.8a5.6 5.6 0 0 0-5.6 5.7v7.1a5.6 5.6 0 0 0 11.3 0v-7.1a5.6 5.6 0 0 0-5.7-5.7zm-23.5 2.8a5.6 5.6 0 0 0-5.6 5.7v4.3a5.6 5.6 0 0 0 11.3 0v-4.3a5.6 5.6 0 0 0-5.7-5.7zm47 0a5.6 5.6 0 0 0-5.6 5.7v4.3a5.6 5.6 0 0 0 11.3 0v-4.3a5.6 5.6 0 0 0-5.7-5.7zm-35.3 1.4a5.6 5.6 0 0 0-5.6 5.7v2.8a5.6 5.6 0 0 0 11.3 0v-2.8a5.6 5.6 0 0 0-5.7-5.7zm23.5 0a5.6 5.6 0 0 0-5.6 5.7v2.8a5.6 5.6 0 0 0 11.3 0v-2.8a5.6 5.6 0 0 0-5.7-5.7zm-34.8 2.7a4.3 4.3 0 0 0-4.3 4.3 4.3 4.3 0 0 0 8.6 0 4.3 4.3 0 0 0-4.3-4.3zm46.4 0a4.3 4.3 0 0 0-4.3 4.3 4.3 4.3 0 0 0 8.6 0 4.3 4.3 0 0 0-4.3-4.3z"/>
</svg>
