<svg xmlns="http://www.w3.org/2000/svg" width="120" height="60" viewBox="0 0 120 60">
  <path fill="#ffffff" d="M60 20.5c-5.3 0-9.9 2.9-12.4 7.2h-6.1v4.6h4.1c-.1.6-.1 1.1-.1 1.7 0 .4 0 .8.1 1.3h-4.1v4.6h6c2.5 4.3 7.1 7.2 12.5 7.2 7.9 0 14.3-6.4 14.3-14.3 0-7.9-6.4-14.3-14.3-14.3zm5.3 20.7H44.6c2.2 1.3 4.8 2.1 7.6 2.1 5.2 0 9.8-2.9 12.3-7.2h6.1v-4.6h-4.1c0-.5.1-1 .1-1.5 0-.5 0-1-.1-1.5h4.1v-4.6h-6c-.3-.6-.7-1.1-1.1-1.6L74 26.9c.6.9 1.2 1.8 1.6 2.8 1 2.1 1.6 4.5 1.6 7 0 1.6-.3 3.1-.7 4.5z"/>
</svg>
