<svg xmlns="http://www.w3.org/2000/svg" width="120" height="60" viewBox="0 0 120 60">
  <path fill="#ffffff" d="M60.1 21.7c-9.2 0-16.6 4.1-16.6 9.1 0 5 7.5 9.1 16.6 9.1s16.6-4.1 16.6-9.1c.1-5-7.4-9.1-16.6-9.1zm0 16.2c-7.8 0-14.1-3.2-14.1-7.1s6.3-7.1 14.1-7.1 14.1 3.2 14.1 7.1-6.3 7.1-14.1 7.1zM77.5 26h-2.8v-2.4h2.8V26zm-1.4 9.9c-1.9 0-3.4-1.5-3.4-3.4 0-1.9 1.5-3.4 3.4-3.4 1.9 0 3.4 1.5 3.4 3.4 0 1.9-1.5 3.4-3.4 3.4zm14.6-9.1h-2.7v9.1h2.7v-9.1zm0-2.3h-2.7v-2.4h2.7v2.4zm-28.4 11.4h-2.6v-9.1h2.6v1c.7-.8 1.8-1.2 2.9-1.2v2.6c-.2-.1-.5-.1-.7-.1-1.4 0-2.1.6-2.1 2.1v4.7h-.1zm-47.5-9.1h-2.6v9.1h2.6v-9.1zm0-4.7h-2.6v2.4h2.6v-2.3zM30 38.4H60v-2.3H30v2.3zm57.1-20.8H77.5v2.4h9.6v-2.4zm-48.9 2.4h2.6v-2.4h-2.6v2.4zm-5.3-.1h-7.6v9.1h2.6v-3.1h5c1.3 0 2.4-1.1 2.4-3 0-1.9-1.1-3-2.4-3zm-2.7 4h-2.3v-2.1h2.3c.7 0 1.1.4 1.1 1.1 0 .7-.4 1-1.1 1zM44 32.5c-1.9 0-3.4-1.5-3.4-3.4 0-1.9 1.5-3.4 3.4-3.4 1.9 0 3.4 1.5 3.4 3.4 0 1.9-1.5 3.4-3.4 3.4zm0-8.7c-3 0-5.4 2.4-5.4 5.4 0 3 2.4 5.4 5.4 5.4 1.2 0 2.3-.4 3.2-1.1v.9h2.5v-9.1h-2.5v.9c-.9-.7-2-1.4-3.2-1.4zm10.4 11.8V21.7h-2.5v13.9h2.5zm5-11.8c-2.3 0-4.1 1.6-4.1 4.6s1.8 4.6 4.1 4.6c1.1 0 1.9-.3 2.5-1v.8h2.5v-9.1h-2.5v.8c-.5-.5-1.4-.7-2.5-.7zm.2 7.3c-1.3 0-2-1-2-2.7s.7-2.7 2-2.7c1.2 0 2 1 2 2.7s-.8 2.7-2 2.7z"/>
</svg>
