<svg xmlns="http://www.w3.org/2000/svg" width="120" height="60" viewBox="0 0 120 60">
  <path fill="#ffffff" d="M30.1 22.7H20v14.7h5.5v-3.9l4.2.1c3.5 0 6.3-1.2 6.3-5.4 0-4.3-2.4-5.5-5.9-5.5zm-.5 7.2h-4.1v-3.5h4.1c1.3 0 1.9.5 1.9 1.7 0 1.3-.6 1.8-1.9 1.8zm26.3-7.2h-17v14.6h17v-3.7h-11.5v-1.9h10.4v-3.5H44.4v-1.9h11.5v-3.6zm7.3 0h-5.1v14.6h5.1V22.7zm37.7 0h-5.5v8.5c0 2.2-.5 2.8-1.8 2.8-1.2 0-1.8-.6-1.8-2.8v-8.5h-5.5v8.9c0 1.9.3 3.5 1.5 4.6 1 .9 2.6 1.4 5.8 1.4 3.1 0 4.8-.5 5.8-1.4 1.2-1.1 1.5-2.7 1.5-4.6v-8.9zm-49 0L47 37.3h5.6l.9-2.9h5.7l.8 2.9h5.6l-4.9-14.6h-5.8zm-.4 8.5l1.8-5.5 1.7 5.5h-3.5z"/>
</svg>
