<svg xmlns="http://www.w3.org/2000/svg" width="120" height="60" viewBox="0 0 120 60">
  <path fill="#76B900" d="M52.7 42.5h5.8v-5.8l-5.8 5.8zm-47.9 4.6h3.1V27.9h-3.1v19.2zm21-19.2l-3.4 12.1-3.4-12.1h-3.3L19.4 48c-.3.8-1 1.7-2.8 1.7-.5 0-1-.1-1.5-.2v3.1c.6.1 1.2.2 1.7.2 3.5 0 4.5-1.3 5.8-4.7l5.4-19.9h-3.2zm9.1-.3c-5.3 0-8.2 3.4-8.2 8.2 0 4.1 2.6 6.9 7.8 6.9 2.6 0 4.3-.6 5.7-1.3v-3.1c-1.4.9-3.1 1.4-5.3 1.4-3 0-4.8-1.2-5-3.7h10.7v-1.8c0-4-2.2-6.6-5.7-6.6zm-5 5.9c.2-2.1 1.5-3 4.7-3 2.2 0 3.1 1.1 3.1 3h-7.8zm51.9-5.9c-4.5 0-7.5 3.5-7.5 8.1 0 4.8 3 7 7.5 7s7.5-2.2 7.5-7c0-4.6-3-8.1-7.5-8.1zm0 12c-2.7 0-4.4-1.2-4.4-4s1.7-4.9 4.4-4.9 4.4 2.1 4.4 4.9-1.7 4-4.4 4zM46.9 35h3.1V17.6h-3.1V35zM106.1 35h3.1v-7.9c0-3.5 2.1-4.2 5.8-3.9v-3.1c-3.3-.2-5 .6-5.8 2.4v-2.2h-3.1V35zm-9.5-11.8c0-.9.8-1.3 2.1-1.3 2.4 0 5.3.7 7.2 1.8v-3.3c-1.9-.9-4.5-1.4-7.2-1.4-3.9 0-5.3 1.8-5.3 4.5 0 6.4 10.8 2.7 10.8 6.8 0 1-1 1.3-2.4 1.3-2.5 0-5.5-.9-7.7-2.2v3.4c2.2 1.1 4.6 1.6 7.6 1.6 3.9 0 5.6-1.9 5.6-4.6 0-6.7-10.7-2.9-10.7-6.6z"></path>
</svg>
