<svg xmlns="http://www.w3.org/2000/svg" width="120" height="60" viewBox="0 0 120 60">
  <path fill="#3DCD58" d="M22.7 23h74.6v14H22.7z"/>
  <path fill="#ffffff" d="M31.7 30c0 2.9-2.3 4.5-6.1 4.5h-3V25.4h3c3.8 0 6.1 1.7 6.1 4.6zm-6-2.6v5.2h.3c1.4 0 2-.8 2-2.6 0-1.7-.7-2.6-2-2.6h-.3zm12 1.7c-1 0-1.6.5-1.9 1.6h3.7c-.3-1.1-.8-1.6-1.8-1.6zm-4.4 2.6c0-3 2-4.7 4.4-4.7 2.9 0 4.1 2 4.1 5.2h-5.9c.2 1.1.8 1.6 1.7 1.6.8 0 1.4-.5 1.5-1.2h2.5c-.3 2-2 3.2-4 3.2-2.6 0-4.3-1.7-4.3-4.1zm14.2-4.7l-1.3 6.3-1.3-6.3h-3l2.4 8h3.7l2.4-8h-2.9zm7.2 0h2.7v8h-2.7v-8zm6.3 0h2.7v1.5c.5-1.1 1.3-1.8 2.7-1.7v2.7h-.2c-1.7 0-2.5.6-2.5 2.4v3h-2.7v-8zm11.3 4.7c0 1-1 1.3-1.7 1.3-.4 0-.9-.1-.9-.7 0-.5.5-.7 1.2-.8l1.4-.2v.4zm0-2.2c0-1.7-1.4-2.6-3.5-2.6-2.2 0-3.7 1.1-3.8 2.8h2.4c.1-.6.5-.9 1.3-.9.8 0 1.1.3 1.1.7 0 .6-.7.7-1.5.8-1.7.2-3.8.6-3.8 2.7 0 1.5 1.2 2.4 2.9 2.4 1.2 0 2-.4 2.5-1.1.1.7.6 1 1.3 1h1.3v-2h-.7c-.3 0-.5-.1-.5-.4v-3.4zm7.4 5.5v-8H77v1.2c-.6-1-1.5-1.4-2.6-1.4-2.3 0-3.9 1.8-3.9 4.3 0 2.4 1.6 4.2 3.9 4.2 1.1 0 2-.4 2.6-1.4v1.2h2.7zm-5-4c0-1.1.6-1.9 1.7-1.9s1.7.8 1.7 1.9-.6 1.9-1.7 1.9-1.7-.8-1.7-1.9z"/>
</svg>
