<svg xmlns="http://www.w3.org/2000/svg" width="120" height="60" viewBox="0 0 120 60">
  <path fill="#ffffff" d="M24.2 22.8h3.9v14.4h-3.9V22.8zm8.5 4.8h3.9v9.6h-3.9v-9.6zm-.9-4.8h5.8v2.9h-5.8v-2.9zm30.4 4.8h3.9v9.6h-3.9v-9.6zm-30.4 0h3.9v1.9c.7-1.2 2.3-2.3 4.4-2.3 3.1 0 5.3 2.4 5.3 5.7 0 3.4-2.3 5.7-5.4 5.7-1.9 0-3.4-.9-4.3-2.3v6.3h-3.9V27.6zm8.5 5.3c0-1.5 1-2.6 2.5-2.6s2.5 1.1 2.5 2.6-1 2.6-2.5 2.6-2.5-1.1-2.5-2.6zm12.4 4.3h-3.9v-9.6h3.9v1.6c.9-1.2 2.3-2 4-2v4.1c-.3-.1-.6-.1-.9-.1-1.8 0-3.1.6-3.1 2.3v3.7zm8.1-9.6h3.9v1.9c.7-1.2 2.3-2.3 4.4-2.3 3.1 0 5.3 2.4 5.3 5.7 0 3.4-2.3 5.7-5.4 5.7-1.9 0-3.4-.9-4.3-2.3v6.3h-3.9V27.6zm8.6 5.3c0-1.5 1-2.6 2.5-2.6s2.5 1.1 2.5 2.6-1 2.6-2.5 2.6c-1.6 0-2.5-1.1-2.5-2.6zm32-5.3h3.9v9.6h-3.9v-1.6c-.9 1.1-2.3 2-4.1 2-2.3 0-3.8-1.3-3.8-4.1v-5.9h3.9v5.2c0 1.1.5 1.7 1.7 1.7 1.3 0 2.4-.6 2.4-2.3v-4.6zm-73.3 0c1-.9 2.6-1.6 4.4-1.6 3.2 0 5.4 2.1 5.4 5 0 2.6-1.8 5.7-6.3 4.9v-6.3c-1 0-2.6.5-2.6 2.3v5.3h-3.9v-9.6h3v0zm7 3.4c0-1.5-1-2.6-2.5-2.6-.9 0-1.6.4-2 .8 0 .3.1.9.1 1.3v1.9c.1 0 .3 0 .4.1 2.5.5 4--.2 4-1.5z"/>
</svg>
